<svg width="20" height="20" viewBox="0 0 20 20" fill="none" xmlns="http://www.w3.org/2000/svg">
<path d="M17.9129 5.26205C17.6004 4.14642 16.9816 3.26517 16.0754 2.64173C14.9316 1.85267 13.616 1.57455 12.4801 1.40423C10.9082 1.16986 9.48477 1.13705 8.12695 1.30267C6.85508 1.45892 5.89727 1.70736 5.02383 2.10892C3.31133 2.89642 2.2832 4.16986 1.96914 5.8933C1.81602 6.7308 1.71289 7.48705 1.65352 8.20892C1.51602 9.87767 1.64102 11.3542 2.03477 12.723C2.41914 14.0574 3.08945 15.0105 4.08477 15.637C4.33789 15.7964 4.66289 15.912 4.97695 16.023C5.15508 16.0855 5.32852 16.1464 5.4707 16.2136C5.60195 16.2745 5.60195 16.2855 5.60039 16.3949C5.58945 17.3433 5.60039 19.2027 5.60039 19.2027L5.60352 19.5995H6.31602L6.43164 19.487C6.5082 19.4152 8.27383 17.7089 8.90352 17.0214L8.98945 16.9261C9.09727 16.8011 9.09727 16.8011 9.2082 16.7995C10.0582 16.7824 10.927 16.7495 11.7895 16.7027C12.8348 16.6464 14.0457 16.5449 15.1863 16.0699C16.2301 15.6339 16.9926 14.9417 17.4504 14.0136C17.9285 13.0449 18.2113 11.9964 18.3176 10.8074C18.5051 8.71673 18.3723 6.90267 17.9129 5.26205ZM14.1535 13.3917C13.891 13.8183 13.5004 14.1152 13.0395 14.3074C12.702 14.448 12.3582 14.4183 12.0254 14.2777C9.23945 13.098 7.05352 11.2402 5.60977 8.5683C5.31133 8.0183 5.10508 7.4183 4.86758 6.83705C4.81914 6.7183 4.82227 6.57767 4.80039 6.44642C4.8207 5.50736 5.54102 4.97767 6.26914 4.8183C6.54727 4.7558 6.79414 4.85423 7.00039 5.05267C7.57227 5.59642 8.02383 6.22923 8.36445 6.93861C8.51289 7.24955 8.4457 7.52455 8.19258 7.7558C8.13945 7.80423 8.08477 7.84798 8.02695 7.89173C7.44883 8.32611 7.36445 8.6558 7.67227 9.31048C8.19727 10.4245 9.06914 11.173 10.1957 11.637C10.4926 11.7589 10.7723 11.698 10.9988 11.4574C11.0301 11.4261 11.0645 11.3949 11.0863 11.3574C11.5301 10.6167 12.1754 10.6902 12.7707 11.112C13.1613 11.3902 13.541 11.6839 13.927 11.9667C14.516 12.3995 14.5113 12.8058 14.1535 13.3917ZM10.4582 5.99955C10.327 5.99955 10.1957 6.01048 10.066 6.03236C9.84727 6.0683 9.64258 5.92142 9.60508 5.70267C9.56914 5.48548 9.71602 5.27923 9.93477 5.2433C10.1066 5.21361 10.2832 5.19955 10.4582 5.19955C12.191 5.19955 13.6004 6.60892 13.6004 8.34173C13.6004 8.5183 13.5863 8.69486 13.5566 8.86517C13.5238 9.06048 13.3551 9.19955 13.1629 9.19955C13.141 9.19955 13.1191 9.19798 13.0957 9.1933C12.8785 9.15736 12.7316 8.95111 12.7676 8.73392C12.7895 8.6058 12.8004 8.47455 12.8004 8.34173C12.8004 7.05111 11.7488 5.99955 10.4582 5.99955ZM12.4004 8.39955C12.4004 8.61986 12.2207 8.79955 12.0004 8.79955C11.7801 8.79955 11.6004 8.61986 11.6004 8.39955C11.6004 7.73861 11.0613 7.19955 10.4004 7.19955C10.1801 7.19955 10.0004 7.01986 10.0004 6.79955C10.0004 6.57923 10.1801 6.39955 10.4004 6.39955C11.5035 6.39955 12.4004 7.29642 12.4004 8.39955ZM14.6848 9.28861C14.6426 9.47455 14.477 9.59955 14.2941 9.59955C14.2645 9.59955 14.2348 9.59642 14.2051 9.59017C13.9895 9.54017 13.8551 9.32611 13.9035 9.11048C13.9613 8.8558 13.991 8.59173 13.991 8.32611C13.991 6.38236 12.4082 4.79955 10.4645 4.79955C10.1988 4.79955 9.93477 4.82923 9.68008 4.88705C9.46445 4.93705 9.25039 4.80111 9.20195 4.58548C9.15195 4.36986 9.28789 4.1558 9.50352 4.10736C9.81602 4.03548 10.1395 3.99955 10.4645 3.99955C12.8504 3.99955 14.791 5.94017 14.791 8.32611C14.791 8.65111 14.7551 8.97455 14.6848 9.28861Z" fill="white"/>
</svg>
