<svg width="17" height="18" viewBox="0 0 17 18" fill="none" xmlns="http://www.w3.org/2000/svg">
<path fill-rule="evenodd" clip-rule="evenodd" d="M13.2897 12.4613C13.0872 13.0344 12.2825 13.5084 11.6407 13.6471C11.2014 13.7404 10.6285 13.8141 8.6982 13.0142C6.53016 12.116 3.5196 8.91642 3.5196 6.78723C3.5196 5.7033 4.14456 4.44113 5.2374 4.44113C5.76324 4.44113 5.87916 4.45139 6.0522 4.86646C6.25464 5.3555 6.74856 6.56035 6.80736 6.68387C7.05012 7.19054 6.56039 7.48715 6.20507 7.92828C6.09167 8.06103 5.96316 8.20461 6.1068 8.45164C6.2496 8.69364 6.74352 9.49861 7.46928 10.1448C8.40672 10.98 9.16692 11.2466 9.43908 11.3601C9.64152 11.4441 9.88344 11.4245 10.0313 11.2665C10.2186 11.064 10.4513 10.7281 10.6882 10.397C10.8553 10.1601 11.0678 10.1305 11.2904 10.2145C11.4408 10.2666 13.3518 11.1541 13.4324 11.2961C13.4921 11.3994 13.4921 11.8883 13.2897 12.4613ZM8.40168 0.599609H8.39747C3.76655 0.599609 0 4.3673 0 8.99961C0 10.8364 0.592206 12.5405 1.59937 13.9227L0.552724 17.044L3.78085 16.0125C5.10889 16.8914 6.69396 17.3996 8.40168 17.3996C13.0326 17.3996 16.8 13.6319 16.8 8.99961C16.8 4.3673 13.0326 0.599609 8.40168 0.599609Z" fill="white"/>
</svg>
