<svg width="20" height="20" viewBox="0 0 20 20" fill="none" xmlns="http://www.w3.org/2000/svg">
<path d="M13.7335 1.66797H6.60698C3.51144 1.66797 1.66602 3.51339 1.66602 6.60893V13.727C1.66602 16.831 3.51144 18.6764 6.60698 18.6764H13.725C16.8206 18.6764 18.666 16.831 18.666 13.7355V6.60893C18.6745 3.51339 16.8291 1.66797 13.7335 1.66797ZM10.1703 13.4718C8.35035 13.4718 6.87061 11.9921 6.87061 10.1722C6.87061 8.3523 8.35035 6.87256 10.1703 6.87256C11.9902 6.87256 13.4699 8.3523 13.4699 10.1722C13.4699 11.9921 11.9902 13.4718 10.1703 13.4718ZM15.2048 5.81804C15.1622 5.92009 15.1027 6.01363 15.0262 6.09868C14.9411 6.17521 14.8476 6.23474 14.7455 6.27727C14.6435 6.31979 14.5329 6.3453 14.4224 6.3453C14.1928 6.3453 13.9802 6.26026 13.8186 6.09868C13.742 6.01363 13.6825 5.92009 13.64 5.81804C13.5975 5.71599 13.5719 5.60543 13.5719 5.49488C13.5719 5.38432 13.5975 5.27377 13.64 5.17171C13.6825 5.06116 13.742 4.97612 13.8186 4.89107C14.0142 4.69548 14.3118 4.60193 14.584 4.66146C14.6435 4.66996 14.6945 4.68697 14.7455 4.71249C14.7966 4.72949 14.8476 4.75501 14.8986 4.78902C14.9411 4.81454 14.9837 4.85706 15.0262 4.89107C15.1027 4.97612 15.1622 5.06116 15.2048 5.17171C15.2473 5.27377 15.2728 5.38432 15.2728 5.49488C15.2728 5.60543 15.2473 5.71599 15.2048 5.81804Z" fill="white"/>
</svg>
