<svg width="20" height="20" viewBox="0 0 20 20" fill="none" xmlns="http://www.w3.org/2000/svg">
<path d="M13.6191 6.50556C13.6226 6.50556 13.6272 6.50556 13.6319 6.50556C13.7538 6.50556 13.8669 6.54346 13.9595 6.60875L13.9578 6.60759C14.0254 6.66647 14.0709 6.74925 14.082 6.84253V6.84428C14.0936 6.9154 14.1 6.99702 14.1 7.08038C14.1 7.11828 14.0989 7.15559 14.096 7.1929V7.18765C13.9648 8.56873 13.3958 11.918 13.1066 13.464C12.9842 14.1187 12.7434 14.3379 12.5103 14.3589C12.0036 14.4061 11.6189 14.0243 11.128 13.7025C10.3596 13.1982 9.92533 12.8845 9.17969 12.3931C8.31747 11.8258 8.87654 11.5128 9.36741 11.0033C9.49625 10.8692 11.7296 8.83748 11.7734 8.65326C11.7757 8.64219 11.7769 8.62994 11.7769 8.61712C11.7769 8.57165 11.76 8.53025 11.7326 8.49877C11.7022 8.47895 11.6644 8.46788 11.6247 8.46788C11.5985 8.46788 11.5734 8.47312 11.5501 8.48187L11.5513 8.48128C11.4743 8.49877 10.2469 9.30989 7.86915 10.9146C7.60973 11.1193 7.28209 11.2487 6.92531 11.2638H6.92181C6.41637 11.2026 5.95756 11.0901 5.52208 10.9298L5.56522 10.9438C5.01838 10.7654 4.58406 10.6715 4.62137 10.3696C4.64119 10.2125 4.85767 10.0518 5.27081 9.88743C7.81572 8.7786 9.51277 8.04774 10.362 7.69484C11.2988 7.19756 12.3849 6.78831 13.527 6.52305L13.6185 6.50498L13.6191 6.50556ZM10.0093 1.25C5.16937 1.26166 1.25 5.18803 1.25 10.0297C1.25 14.8783 5.18045 18.8094 10.0297 18.8094C14.8789 18.8094 18.8094 14.8789 18.8094 10.0297C18.8094 5.18803 14.89 1.26166 10.0512 1.25H10.0501C10.0365 1.25 10.0229 1.25 10.0093 1.25Z" fill="white"/>
</svg>
