<svg xmlns="http://www.w3.org/2000/svg" version="1.1" xmlns:xlink="http://www.w3.org/1999/xlink" xmlns:svgjs="http://svgjs.dev/svgjs" width="1000" height="1000"><style>
    #light-icon {
      display: inline;
    }
    #dark-icon {
      display: none;
    }

    @media (prefers-color-scheme: dark) {
      #light-icon {
        display: none;
      }
      #dark-icon {
        display: inline;
      }
    }
  </style><g id="light-icon"><svg xmlns="http://www.w3.org/2000/svg" version="1.1" xmlns:xlink="http://www.w3.org/1999/xlink" xmlns:svgjs="http://svgjs.dev/svgjs" width="1000" height="1000"><g clipPath="url(#SvgjsClipPath1043)"><rect width="1000" height="1000" fill="#ffffff"></rect><g transform="matrix(12.5,0,0,12.5,50,50)"><svg xmlns="http://www.w3.org/2000/svg" version="1.1" xmlns:xlink="http://www.w3.org/1999/xlink" xmlns:svgjs="http://svgjs.dev/svgjs" width="72" height="72"><svg width="72" height="72" viewBox="0 0 72 72" fill="none" xmlns="http://www.w3.org/2000/svg">
<path d="M64.0691 33.5464C64.0691 41.7397 64.0691 49.933 64.0691 58.1263C50.0778 58.1263 36.0866 58.1263 22.0953 58.1263L22.0953 48.3152C27.8077 48.3152 33.52 48.3152 39.2331 48.3152V43.3581H35.7573L35.7573 33.5464C45.1941 33.5464 54.6323 33.5464 64.0691 33.5464ZM16.2313 58.0503L16.2313 29.5118L6 29.5118C15.7934 23.8967 25.5895 18.2871 35.3802 12.668L63.0266 28.5167H58.16L35.3857 15.4606L15.1103 27.0848L18.6755 27.0848L18.6755 58.0503H16.2313ZM36.8886 55.6993V50.7422H24.5396V55.6993H36.8886ZM61.6248 50.7422C59.1252 50.7422 56.6256 50.7422 54.1261 50.7422V55.6993H61.6248V50.7422ZM51.6818 50.7422L39.3328 50.7422V55.6993L51.6818 55.6993V50.7422ZM54.0263 48.3152V43.3581C49.9098 43.3581 45.7939 43.3581 41.6773 43.3581V48.3152C45.7939 48.3152 49.9098 48.3152 54.0263 48.3152ZM61.6248 43.3581H56.4706V48.3152H61.6248V43.3581ZM51.1353 35.9734V40.9311C54.6323 40.9311 58.1278 40.9311 61.6248 40.9311V35.9734H51.1353ZM48.691 35.9734L38.2015 35.9734V40.9311L48.691 40.9311V35.9734Z" fill="#EB5C20"></path>
</svg></svg></g></g><defs><clipPath id="SvgjsClipPath1043"><rect width="1000" height="1000" x="0" y="0" rx="400" ry="400"></rect></clipPath></defs></svg></g><g id="dark-icon"><svg xmlns="http://www.w3.org/2000/svg" version="1.1" xmlns:xlink="http://www.w3.org/1999/xlink" xmlns:svgjs="http://svgjs.dev/svgjs" width="1000" height="1000"><g clipPath="url(#SvgjsClipPath1044)"><rect width="1000" height="1000" fill="#ffffff"></rect><g transform="matrix(9.722222222222221,0,0,9.722222222222221,150,150)"><svg xmlns="http://www.w3.org/2000/svg" version="1.1" xmlns:xlink="http://www.w3.org/1999/xlink" xmlns:svgjs="http://svgjs.dev/svgjs" width="72" height="72"><svg width="72" height="72" viewBox="0 0 72 72" fill="none" xmlns="http://www.w3.org/2000/svg">
<path d="M64.0691 33.5464C64.0691 41.7397 64.0691 49.933 64.0691 58.1263C50.0778 58.1263 36.0866 58.1263 22.0953 58.1263L22.0953 48.3152C27.8077 48.3152 33.52 48.3152 39.2331 48.3152V43.3581H35.7573L35.7573 33.5464C45.1941 33.5464 54.6323 33.5464 64.0691 33.5464ZM16.2313 58.0503L16.2313 29.5118L6 29.5118C15.7934 23.8967 25.5895 18.2871 35.3802 12.668L63.0266 28.5167H58.16L35.3857 15.4606L15.1103 27.0848L18.6755 27.0848L18.6755 58.0503H16.2313ZM36.8886 55.6993V50.7422H24.5396V55.6993H36.8886ZM61.6248 50.7422C59.1252 50.7422 56.6256 50.7422 54.1261 50.7422V55.6993H61.6248V50.7422ZM51.6818 50.7422L39.3328 50.7422V55.6993L51.6818 55.6993V50.7422ZM54.0263 48.3152V43.3581C49.9098 43.3581 45.7939 43.3581 41.6773 43.3581V48.3152C45.7939 48.3152 49.9098 48.3152 54.0263 48.3152ZM61.6248 43.3581H56.4706V48.3152H61.6248V43.3581ZM51.1353 35.9734V40.9311C54.6323 40.9311 58.1278 40.9311 61.6248 40.9311V35.9734H51.1353ZM48.691 35.9734L38.2015 35.9734V40.9311L48.691 40.9311V35.9734Z" fill="#EB5C20"></path>
</svg></svg></g></g><defs><clipPath id="SvgjsClipPath1044"><rect width="1000" height="1000" x="0" y="0" rx="350" ry="350"></rect></clipPath></defs></svg></g></svg>